<mxfile host="app.diagrams.net" modified="2021-09-08T02:04:01.235Z" agent="5.0 (X11; Linux x86_64) AppleWebKit/537.36 (KHTML, like Gecko) Chrome/91.0.4472.114 Safari/537.36" etag="-EzAq87twD-NF1XiwFCj" version="15.1.1" type="github">
  <diagram id="kgpKYQtTHZ0yAKxKKP6v" name="Page-1">
    <mxGraphModel dx="868" dy="441" grid="1" gridSize="10" guides="1" tooltips="1" connect="1" arrows="1" fold="1" page="1" pageScale="1" pageWidth="850" pageHeight="1100" math="0" shadow="0">
      <root>
        <mxCell id="0" />
        <mxCell id="1" parent="0" />
        <mxCell id="D2RUkAI-Kd2LK9MKfhUE-1" value="" style="rounded=0;whiteSpace=wrap;html=1;" vertex="1" parent="1">
          <mxGeometry x="120" y="440" width="120" height="80" as="geometry" />
        </mxCell>
        <mxCell id="D2RUkAI-Kd2LK9MKfhUE-2" value="&lt;br&gt;Login&lt;br style=&quot;font-size: 20px&quot;&gt;&lt;span style=&quot;font-size: 20px&quot;&gt;&lt;br style=&quot;font-size: 20px&quot;&gt;&lt;/span&gt;" style="text;html=1;strokeColor=none;fillColor=none;align=center;verticalAlign=middle;whiteSpace=wrap;rounded=0;labelPosition=center;verticalLabelPosition=middle;fontSize=20;fontStyle=1" vertex="1" parent="1">
          <mxGeometry x="120" y="440" width="120" height="80" as="geometry" />
        </mxCell>
        <mxCell id="D2RUkAI-Kd2LK9MKfhUE-3" value="" style="endArrow=classic;html=1;" edge="1" parent="1">
          <mxGeometry width="50" height="50" relative="1" as="geometry">
            <mxPoint x="40" y="480" as="sourcePoint" />
            <mxPoint x="120" y="480" as="targetPoint" />
          </mxGeometry>
        </mxCell>
        <mxCell id="D2RUkAI-Kd2LK9MKfhUE-5" value="&lt;font color=&quot;#990000&quot;&gt;path:&amp;nbsp; &amp;nbsp;/&lt;/font&gt;" style="text;html=1;strokeColor=none;fillColor=none;align=center;verticalAlign=middle;whiteSpace=wrap;rounded=0;fontSize=20;" vertex="1" parent="1">
          <mxGeometry x="120" y="530" width="120" height="20" as="geometry" />
        </mxCell>
        <mxCell id="D2RUkAI-Kd2LK9MKfhUE-6" value="" style="rounded=0;whiteSpace=wrap;html=1;" vertex="1" parent="1">
          <mxGeometry x="320" y="440" width="120" height="80" as="geometry" />
        </mxCell>
        <mxCell id="D2RUkAI-Kd2LK9MKfhUE-7" value="&lt;span style=&quot;font-size: 20px&quot;&gt;Home&lt;br style=&quot;font-size: 20px&quot;&gt;&lt;/span&gt;" style="text;html=1;strokeColor=none;fillColor=none;align=center;verticalAlign=middle;whiteSpace=wrap;rounded=0;labelPosition=center;verticalLabelPosition=middle;fontSize=20;fontStyle=1" vertex="1" parent="1">
          <mxGeometry x="320" y="440" width="120" height="80" as="geometry" />
        </mxCell>
        <mxCell id="D2RUkAI-Kd2LK9MKfhUE-8" value="" style="endArrow=classic;html=1;" edge="1" parent="1">
          <mxGeometry width="50" height="50" relative="1" as="geometry">
            <mxPoint x="240" y="480" as="sourcePoint" />
            <mxPoint x="320" y="480" as="targetPoint" />
          </mxGeometry>
        </mxCell>
        <mxCell id="D2RUkAI-Kd2LK9MKfhUE-9" value="&lt;font color=&quot;#990000&quot;&gt;path:&amp;nbsp; &amp;nbsp;/&lt;/font&gt;" style="text;html=1;strokeColor=none;fillColor=none;align=center;verticalAlign=middle;whiteSpace=wrap;rounded=0;fontSize=20;" vertex="1" parent="1">
          <mxGeometry x="320" y="530" width="120" height="20" as="geometry" />
        </mxCell>
        <mxCell id="D2RUkAI-Kd2LK9MKfhUE-10" value="" style="shape=cylinder3;whiteSpace=wrap;html=1;boundedLbl=1;backgroundOutline=1;size=15;fontSize=20;" vertex="1" parent="1">
          <mxGeometry x="400" y="120" width="160" height="200" as="geometry" />
        </mxCell>
        <mxCell id="D2RUkAI-Kd2LK9MKfhUE-11" value="&lt;span style=&quot;font-size: 20px&quot;&gt;AuthedUser, &lt;br&gt;Users, &lt;br&gt;Questions&lt;br style=&quot;font-size: 20px&quot;&gt;&lt;/span&gt;" style="text;html=1;strokeColor=none;fillColor=none;align=center;verticalAlign=middle;whiteSpace=wrap;rounded=0;labelPosition=center;verticalLabelPosition=middle;fontSize=20;fontStyle=1" vertex="1" parent="1">
          <mxGeometry x="400" y="150" width="160" height="150" as="geometry" />
        </mxCell>
        <mxCell id="D2RUkAI-Kd2LK9MKfhUE-12" value="" style="rounded=0;whiteSpace=wrap;html=1;" vertex="1" parent="1">
          <mxGeometry x="500" y="680" width="160" height="80" as="geometry" />
        </mxCell>
        <mxCell id="D2RUkAI-Kd2LK9MKfhUE-13" value="&lt;span style=&quot;font-size: 20px&quot;&gt;Leaderboard&lt;br style=&quot;font-size: 20px&quot;&gt;&lt;/span&gt;" style="text;html=1;strokeColor=none;fillColor=none;align=center;verticalAlign=middle;whiteSpace=wrap;rounded=0;labelPosition=center;verticalLabelPosition=middle;fontSize=20;fontStyle=1" vertex="1" parent="1">
          <mxGeometry x="535" y="680" width="90" height="80" as="geometry" />
        </mxCell>
        <mxCell id="D2RUkAI-Kd2LK9MKfhUE-14" value="&lt;font color=&quot;#990000&quot;&gt;/leaderboard&lt;/font&gt;" style="text;html=1;strokeColor=none;fillColor=none;align=center;verticalAlign=middle;whiteSpace=wrap;rounded=0;fontSize=20;" vertex="1" parent="1">
          <mxGeometry x="520" y="770" width="120" height="20" as="geometry" />
        </mxCell>
        <mxCell id="D2RUkAI-Kd2LK9MKfhUE-15" value="" style="rounded=0;whiteSpace=wrap;html=1;" vertex="1" parent="1">
          <mxGeometry x="320" y="680" width="120" height="80" as="geometry" />
        </mxCell>
        <mxCell id="D2RUkAI-Kd2LK9MKfhUE-16" value="&lt;span style=&quot;font-size: 20px&quot;&gt;New&lt;br&gt;Poll&lt;br style=&quot;font-size: 20px&quot;&gt;&lt;/span&gt;" style="text;html=1;strokeColor=none;fillColor=none;align=center;verticalAlign=middle;whiteSpace=wrap;rounded=0;labelPosition=center;verticalLabelPosition=middle;fontSize=20;fontStyle=1" vertex="1" parent="1">
          <mxGeometry x="320" y="680" width="120" height="80" as="geometry" />
        </mxCell>
        <mxCell id="D2RUkAI-Kd2LK9MKfhUE-17" value="&lt;font color=&quot;#990000&quot;&gt;/add&lt;/font&gt;" style="text;html=1;strokeColor=none;fillColor=none;align=center;verticalAlign=middle;whiteSpace=wrap;rounded=0;fontSize=20;" vertex="1" parent="1">
          <mxGeometry x="320" y="770" width="120" height="20" as="geometry" />
        </mxCell>
        <mxCell id="D2RUkAI-Kd2LK9MKfhUE-18" value="" style="rounded=0;whiteSpace=wrap;html=1;" vertex="1" parent="1">
          <mxGeometry x="120" y="680" width="120" height="80" as="geometry" />
        </mxCell>
        <mxCell id="D2RUkAI-Kd2LK9MKfhUE-19" value="&lt;span style=&quot;font-size: 20px&quot;&gt;Poll&lt;br style=&quot;font-size: 20px&quot;&gt;&lt;/span&gt;" style="text;html=1;strokeColor=none;fillColor=none;align=center;verticalAlign=middle;whiteSpace=wrap;rounded=0;labelPosition=center;verticalLabelPosition=middle;fontSize=20;fontStyle=1" vertex="1" parent="1">
          <mxGeometry x="120" y="680" width="120" height="80" as="geometry" />
        </mxCell>
        <mxCell id="D2RUkAI-Kd2LK9MKfhUE-20" value="&lt;font color=&quot;#990000&quot;&gt;/questions/:id&lt;/font&gt;" style="text;html=1;strokeColor=none;fillColor=none;align=center;verticalAlign=middle;whiteSpace=wrap;rounded=0;fontSize=20;" vertex="1" parent="1">
          <mxGeometry x="120" y="770" width="120" height="20" as="geometry" />
        </mxCell>
        <mxCell id="D2RUkAI-Kd2LK9MKfhUE-21" value="" style="endArrow=none;html=1;fontSize=20;exitX=1;exitY=0.5;exitDx=0;exitDy=0;" edge="1" parent="1" source="D2RUkAI-Kd2LK9MKfhUE-7">
          <mxGeometry width="50" height="50" relative="1" as="geometry">
            <mxPoint x="410" y="650" as="sourcePoint" />
            <mxPoint x="580" y="480" as="targetPoint" />
          </mxGeometry>
        </mxCell>
        <mxCell id="D2RUkAI-Kd2LK9MKfhUE-23" value="" style="endArrow=none;html=1;fontSize=20;exitX=0.5;exitY=0;exitDx=0;exitDy=0;" edge="1" parent="1" source="D2RUkAI-Kd2LK9MKfhUE-13">
          <mxGeometry width="50" height="50" relative="1" as="geometry">
            <mxPoint x="420" y="650" as="sourcePoint" />
            <mxPoint x="580" y="480" as="targetPoint" />
            <Array as="points">
              <mxPoint x="580" y="580" />
            </Array>
          </mxGeometry>
        </mxCell>
        <mxCell id="D2RUkAI-Kd2LK9MKfhUE-24" value="" style="endArrow=none;html=1;fontSize=20;" edge="1" parent="1">
          <mxGeometry width="50" height="50" relative="1" as="geometry">
            <mxPoint x="180" y="640" as="sourcePoint" />
            <mxPoint x="580" y="640" as="targetPoint" />
          </mxGeometry>
        </mxCell>
        <mxCell id="D2RUkAI-Kd2LK9MKfhUE-25" value="" style="endArrow=none;html=1;fontSize=20;exitX=0.5;exitY=0;exitDx=0;exitDy=0;" edge="1" parent="1" source="D2RUkAI-Kd2LK9MKfhUE-19">
          <mxGeometry width="50" height="50" relative="1" as="geometry">
            <mxPoint x="420" y="650" as="sourcePoint" />
            <mxPoint x="180" y="640" as="targetPoint" />
          </mxGeometry>
        </mxCell>
        <mxCell id="D2RUkAI-Kd2LK9MKfhUE-26" value="" style="endArrow=none;html=1;fontSize=20;exitX=0.5;exitY=0;exitDx=0;exitDy=0;" edge="1" parent="1" source="D2RUkAI-Kd2LK9MKfhUE-16">
          <mxGeometry width="50" height="50" relative="1" as="geometry">
            <mxPoint x="420" y="650" as="sourcePoint" />
            <mxPoint x="380" y="640" as="targetPoint" />
          </mxGeometry>
        </mxCell>
        <mxCell id="D2RUkAI-Kd2LK9MKfhUE-27" value="" style="endArrow=classic;html=1;fontSize=20;entryX=1;entryY=0.75;entryDx=0;entryDy=0;exitX=0;exitY=0.75;exitDx=0;exitDy=0;" edge="1" parent="1" source="D2RUkAI-Kd2LK9MKfhUE-7" target="D2RUkAI-Kd2LK9MKfhUE-2">
          <mxGeometry width="50" height="50" relative="1" as="geometry">
            <mxPoint x="420" y="660" as="sourcePoint" />
            <mxPoint x="470" y="610" as="targetPoint" />
          </mxGeometry>
        </mxCell>
        <mxCell id="D2RUkAI-Kd2LK9MKfhUE-28" value="Store&lt;span style=&quot;font-size: 20px&quot;&gt;&lt;br style=&quot;font-size: 20px&quot;&gt;&lt;/span&gt;" style="text;html=1;strokeColor=none;fillColor=none;align=center;verticalAlign=middle;whiteSpace=wrap;rounded=0;labelPosition=center;verticalLabelPosition=middle;fontSize=20;fontStyle=1" vertex="1" parent="1">
          <mxGeometry x="425" y="320" width="120" height="80" as="geometry" />
        </mxCell>
        <mxCell id="D2RUkAI-Kd2LK9MKfhUE-29" value="&lt;p style=&quot;box-sizing: border-box ; margin: 0px 0px 15px ; font-size: 18px ; padding: 18px 30px ; line-height: 1.6 ; color: rgb(82 , 92 , 101)&quot;&gt;Navigation Bar: visible on all of the pages. Only t&lt;span&gt;he logged in user can navigate between pages&lt;/span&gt;&lt;/p&gt;" style="text;html=1;strokeColor=none;fillColor=none;align=center;verticalAlign=middle;whiteSpace=wrap;rounded=0;labelPosition=center;verticalLabelPosition=middle;fontSize=20;fontStyle=1" vertex="1" parent="1">
          <mxGeometry x="40" y="880" width="760" height="80" as="geometry" />
        </mxCell>
      </root>
    </mxGraphModel>
  </diagram>
</mxfile>
